<mxfile modified="2024-02-26T14:33:40.057Z" host="Electron" agent="Mozilla/5.0 (Windows NT 10.0; Win64; x64) AppleWebKit/537.36 (KHTML, like Gecko) draw.io/22.1.16 Chrome/120.0.6099.109 Electron/28.1.0 Safari/537.36" etag="05gl-JSoHAw-ykRR6A3c" version="22.1.16" type="device">
  <diagram id="Ht1M8jgEwFfnCIfOTk4-" name="Page-1">
    <mxGraphModel dx="3241" dy="1228" grid="1" gridSize="10" guides="1" tooltips="1" connect="1" arrows="1" fold="1" page="1" pageScale="1" pageWidth="1169" pageHeight="827" math="0" shadow="0">
      <root>
        <mxCell id="0" />
        <mxCell id="1" parent="0" />
        <mxCell id="-QjtrjUzRDEMRZ5MF8oH-47" value="&lt;div style=&quot;font-family: Consolas, &amp;quot;Courier New&amp;quot;, monospace; font-weight: normal; font-size: 29px; line-height: 19px;&quot;&gt;Blogging Platform Infrastructure Requirements&lt;/div&gt;" style="text;html=1;resizable=0;points=[];autosize=1;align=left;verticalAlign=top;spacingTop=-4;fontSize=29;fontStyle=1;labelBackgroundColor=default;fontColor=#000000;" parent="1" vertex="1">
          <mxGeometry x="270" y="109.5" width="740" height="30" as="geometry" />
        </mxCell>
        <mxCell id="SCVMTBWpLvtzJIhz15lM-1" value="" style="line;strokeWidth=2;html=1;fontSize=14;labelBackgroundColor=none;" parent="1" vertex="1">
          <mxGeometry x="52.5" y="139.5" width="1060" height="10" as="geometry" />
        </mxCell>
        <mxCell id="_6TExR1_Hg6pZ1gj3lUM-34" style="edgeStyle=orthogonalEdgeStyle;rounded=0;orthogonalLoop=1;jettySize=auto;html=1;" parent="1" source="_6TExR1_Hg6pZ1gj3lUM-20" target="_6TExR1_Hg6pZ1gj3lUM-21" edge="1">
          <mxGeometry relative="1" as="geometry" />
        </mxCell>
        <mxCell id="_6TExR1_Hg6pZ1gj3lUM-20" value="" style="image;aspect=fixed;perimeter=ellipsePerimeter;html=1;align=center;shadow=0;dashed=0;spacingTop=3;image=img/lib/active_directory/internet_cloud.svg;" parent="1" vertex="1">
          <mxGeometry x="-20" y="660.25" width="50" height="31.5" as="geometry" />
        </mxCell>
        <mxCell id="_6TExR1_Hg6pZ1gj3lUM-2" value="AWS Cloud" style="points=[[0,0],[0.25,0],[0.5,0],[0.75,0],[1,0],[1,0.25],[1,0.5],[1,0.75],[1,1],[0.75,1],[0.5,1],[0.25,1],[0,1],[0,0.75],[0,0.5],[0,0.25]];outlineConnect=0;html=1;whiteSpace=wrap;fontSize=12;fontStyle=0;container=1;pointerEvents=0;collapsible=0;recursiveResize=0;shape=mxgraph.aws4.group;grIcon=mxgraph.aws4.group_aws_cloud_alt;fillColor=none;verticalAlign=top;align=left;spacingLeft=30;dashed=0;labelBackgroundColor=none;" parent="1" vertex="1">
          <mxGeometry x="160" y="280" width="1570" height="1210" as="geometry" />
        </mxCell>
        <mxCell id="_6TExR1_Hg6pZ1gj3lUM-9" value="Amazon S3" style="sketch=0;outlineConnect=0;fontColor=#232F3E;gradientColor=none;strokeColor=#ffffff;fillColor=#232F3E;dashed=0;verticalLabelPosition=middle;verticalAlign=bottom;align=center;html=1;whiteSpace=wrap;fontSize=10;fontStyle=1;spacing=3;shape=mxgraph.aws4.productIcon;prIcon=mxgraph.aws4.s3;" parent="_6TExR1_Hg6pZ1gj3lUM-2" vertex="1">
          <mxGeometry x="20" y="60" width="80" height="100" as="geometry" />
        </mxCell>
        <mxCell id="_6TExR1_Hg6pZ1gj3lUM-21" value="" style="outlineConnect=0;dashed=0;verticalLabelPosition=bottom;verticalAlign=top;align=center;html=1;shape=mxgraph.aws3.internet_gateway;fillColor=#F58534;gradientColor=none;" parent="_6TExR1_Hg6pZ1gj3lUM-2" vertex="1">
          <mxGeometry x="40" y="360" width="69" height="72" as="geometry" />
        </mxCell>
        <mxCell id="_6TExR1_Hg6pZ1gj3lUM-69" value="" style="sketch=0;points=[[0,0,0],[0.25,0,0],[0.5,0,0],[0.75,0,0],[1,0,0],[0,1,0],[0.25,1,0],[0.5,1,0],[0.75,1,0],[1,1,0],[0,0.25,0],[0,0.5,0],[0,0.75,0],[1,0.25,0],[1,0.5,0],[1,0.75,0]];points=[[0,0,0],[0.25,0,0],[0.5,0,0],[0.75,0,0],[1,0,0],[0,1,0],[0.25,1,0],[0.5,1,0],[0.75,1,0],[1,1,0],[0,0.25,0],[0,0.5,0],[0,0.75,0],[1,0.25,0],[1,0.5,0],[1,0.75,0]];outlineConnect=0;fontColor=#232F3E;fillColor=#E7157B;strokeColor=#ffffff;dashed=0;verticalLabelPosition=bottom;verticalAlign=top;align=center;html=1;fontSize=12;fontStyle=0;aspect=fixed;shape=mxgraph.aws4.resourceIcon;resIcon=mxgraph.aws4.cloudwatch_2;spacingLeft=30;fontFamily=Helvetica;" parent="_6TExR1_Hg6pZ1gj3lUM-2" vertex="1">
          <mxGeometry x="43" y="633" width="78" height="78" as="geometry" />
        </mxCell>
        <mxCell id="_6TExR1_Hg6pZ1gj3lUM-71" value="CloudWatch" style="text;html=1;strokeColor=none;fillColor=none;align=center;verticalAlign=middle;whiteSpace=wrap;rounded=0;fontSize=12;fontFamily=Helvetica;fontColor=#000000;labelBackgroundColor=none;fontStyle=1" parent="_6TExR1_Hg6pZ1gj3lUM-2" vertex="1">
          <mxGeometry x="50.5" y="711" width="60" height="30" as="geometry" />
        </mxCell>
        <mxCell id="_6TExR1_Hg6pZ1gj3lUM-72" value="NAT&amp;nbsp; Gateawy" style="text;html=1;strokeColor=none;fillColor=none;align=center;verticalAlign=middle;whiteSpace=wrap;rounded=0;fontSize=12;fontFamily=Helvetica;fontColor=#000000;" parent="_6TExR1_Hg6pZ1gj3lUM-2" vertex="1">
          <mxGeometry x="49" y="432" width="60" height="30" as="geometry" />
        </mxCell>
        <mxCell id="_6TExR1_Hg6pZ1gj3lUM-76" value="" style="sketch=0;outlineConnect=0;fontColor=#232F3E;gradientColor=none;fillColor=#8C4FFF;strokeColor=none;dashed=0;verticalLabelPosition=bottom;verticalAlign=top;align=center;html=1;fontSize=12;fontStyle=0;aspect=fixed;pointerEvents=1;shape=mxgraph.aws4.network_access_control_list;spacingLeft=30;fontFamily=Helvetica;" parent="_6TExR1_Hg6pZ1gj3lUM-2" vertex="1">
          <mxGeometry x="41.5" y="480" width="78" height="78" as="geometry" />
        </mxCell>
        <object label="" id="_6TExR1_Hg6pZ1gj3lUM-91">
          <mxCell style="outlineConnect=0;dashed=0;verticalLabelPosition=bottom;verticalAlign=top;align=center;html=1;shape=mxgraph.aws3.iam;fillColor=#759C3E;gradientColor=none;sketch=0;strokeColor=#E8E8E8;spacingLeft=30;fontFamily=Helvetica;fontSize=12;fontColor=#E8E8E8;" parent="_6TExR1_Hg6pZ1gj3lUM-2" vertex="1">
            <mxGeometry x="54" y="200" width="42" height="81" as="geometry" />
          </mxCell>
        </object>
        <mxCell id="_6TExR1_Hg6pZ1gj3lUM-95" value="" style="outlineConnect=0;dashed=0;verticalLabelPosition=bottom;verticalAlign=top;align=center;html=1;shape=mxgraph.aws3.codepipeline;fillColor=#759C3E;gradientColor=none;sketch=0;strokeColor=#E8E8E8;spacingLeft=30;fontFamily=Helvetica;fontSize=12;fontColor=#E8E8E8;" parent="_6TExR1_Hg6pZ1gj3lUM-2" vertex="1">
          <mxGeometry x="52" y="870" width="67.5" height="81" as="geometry" />
        </mxCell>
        <mxCell id="_6TExR1_Hg6pZ1gj3lUM-12" value="DynamoDb" style="outlineConnect=0;dashed=0;verticalLabelPosition=bottom;verticalAlign=top;align=center;html=1;shape=mxgraph.aws3.dynamo_db;fillColor=#2E73B8;gradientColor=none;" parent="_6TExR1_Hg6pZ1gj3lUM-2" vertex="1">
          <mxGeometry x="49.75" y="741" width="72" height="81" as="geometry" />
        </mxCell>
        <mxCell id="_6TExR1_Hg6pZ1gj3lUM-100" value="IAM" style="text;html=1;align=center;verticalAlign=middle;whiteSpace=wrap;rounded=0;fontSize=12;fontFamily=Helvetica;" parent="_6TExR1_Hg6pZ1gj3lUM-2" vertex="1">
          <mxGeometry x="44.5" y="281" width="60" height="30" as="geometry" />
        </mxCell>
        <mxCell id="_6TExR1_Hg6pZ1gj3lUM-106" value="NACL" style="text;html=1;align=center;verticalAlign=middle;whiteSpace=wrap;rounded=0;fontSize=12;fontFamily=Helvetica;" parent="_6TExR1_Hg6pZ1gj3lUM-2" vertex="1">
          <mxGeometry x="49" y="558" width="60" height="30" as="geometry" />
        </mxCell>
        <mxCell id="_6TExR1_Hg6pZ1gj3lUM-151" value="CodePipeline" style="text;html=1;align=center;verticalAlign=middle;whiteSpace=wrap;rounded=0;fontSize=12;fontFamily=Helvetica;" parent="_6TExR1_Hg6pZ1gj3lUM-2" vertex="1">
          <mxGeometry x="55.75" y="961" width="60" height="30" as="geometry" />
        </mxCell>
        <mxCell id="_6TExR1_Hg6pZ1gj3lUM-6" value="VPC" style="points=[[0,0],[0.25,0],[0.5,0],[0.75,0],[1,0],[1,0.25],[1,0.5],[1,0.75],[1,1],[0.75,1],[0.5,1],[0.25,1],[0,1],[0,0.75],[0,0.5],[0,0.25]];outlineConnect=0;gradientColor=none;html=1;whiteSpace=wrap;fontSize=12;fontStyle=0;container=1;pointerEvents=0;collapsible=0;recursiveResize=0;shape=mxgraph.aws4.group;grIcon=mxgraph.aws4.group_vpc2;strokeColor=#8C4FFF;fillColor=none;verticalAlign=top;align=left;spacingLeft=30;fontColor=#AAB7B8;dashed=0;movable=1;resizable=1;rotatable=1;deletable=1;editable=1;locked=0;connectable=1;" parent="_6TExR1_Hg6pZ1gj3lUM-2" vertex="1">
          <mxGeometry x="150" y="134" width="1360" height="1026" as="geometry" />
        </mxCell>
        <mxCell id="_6TExR1_Hg6pZ1gj3lUM-156" value="Availability zone us-east-a" style="fillColor=none;strokeColor=#147EBA;dashed=1;verticalAlign=top;fontStyle=0;fontColor=#147EBA;whiteSpace=wrap;html=1;" parent="_6TExR1_Hg6pZ1gj3lUM-6" vertex="1">
          <mxGeometry x="90" y="50" width="300" height="860" as="geometry" />
        </mxCell>
        <mxCell id="_6TExR1_Hg6pZ1gj3lUM-7" value="Private subnet" style="points=[[0,0],[0.25,0],[0.5,0],[0.75,0],[1,0],[1,0.25],[1,0.5],[1,0.75],[1,1],[0.75,1],[0.5,1],[0.25,1],[0,1],[0,0.75],[0,0.5],[0,0.25]];outlineConnect=0;gradientColor=none;html=1;whiteSpace=wrap;fontSize=12;fontStyle=0;container=1;pointerEvents=0;collapsible=0;recursiveResize=0;shape=mxgraph.aws4.group;grIcon=mxgraph.aws4.group_security_group;grStroke=0;strokeColor=#00A4A6;fillColor=#E6F6F7;verticalAlign=top;align=left;spacingLeft=30;fontColor=#147EBA;dashed=0;" parent="_6TExR1_Hg6pZ1gj3lUM-6" vertex="1">
          <mxGeometry x="995" y="473.5" width="255" height="406.5" as="geometry" />
        </mxCell>
        <mxCell id="_6TExR1_Hg6pZ1gj3lUM-13" value="" style="outlineConnect=0;dashed=0;verticalLabelPosition=bottom;verticalAlign=top;align=center;html=1;shape=mxgraph.aws3.efs;fillColor=#E05243;gradientColor=none;" parent="_6TExR1_Hg6pZ1gj3lUM-7" vertex="1">
          <mxGeometry x="44.5" y="155" width="76.5" height="93" as="geometry" />
        </mxCell>
        <mxCell id="_6TExR1_Hg6pZ1gj3lUM-149" value="Cluster" style="text;html=1;align=center;verticalAlign=middle;whiteSpace=wrap;rounded=0;fontSize=12;fontFamily=Helvetica;" parent="_6TExR1_Hg6pZ1gj3lUM-7" vertex="1">
          <mxGeometry x="44.5" y="100" width="60" height="30" as="geometry" />
        </mxCell>
        <mxCell id="_6TExR1_Hg6pZ1gj3lUM-15" value="EFS" style="text;html=1;strokeColor=none;fillColor=none;align=center;verticalAlign=middle;whiteSpace=wrap;rounded=0;" parent="_6TExR1_Hg6pZ1gj3lUM-7" vertex="1">
          <mxGeometry x="57.5" y="262.5" width="60" height="30" as="geometry" />
        </mxCell>
        <mxCell id="_Xt4jNBx-VxSrQDPc425-2" value="" style="sketch=0;outlineConnect=0;fontColor=#232F3E;gradientColor=none;fillColor=#C925D1;strokeColor=none;dashed=0;verticalLabelPosition=bottom;verticalAlign=top;align=center;html=1;fontSize=12;fontStyle=0;aspect=fixed;pointerEvents=1;shape=mxgraph.aws4.rds_multi_az_db_cluster;" parent="_6TExR1_Hg6pZ1gj3lUM-7" vertex="1">
          <mxGeometry x="45" y="26.5" width="78" height="78" as="geometry" />
        </mxCell>
        <mxCell id="_6TExR1_Hg6pZ1gj3lUM-8" value="Public subnet" style="points=[[0,0],[0.25,0],[0.5,0],[0.75,0],[1,0],[1,0.25],[1,0.5],[1,0.75],[1,1],[0.75,1],[0.5,1],[0.25,1],[0,1],[0,0.75],[0,0.5],[0,0.25]];outlineConnect=0;gradientColor=none;html=1;whiteSpace=wrap;fontSize=12;fontStyle=0;container=1;pointerEvents=0;collapsible=0;recursiveResize=0;shape=mxgraph.aws4.group;grIcon=mxgraph.aws4.group_security_group;grStroke=0;strokeColor=#7AA116;fillColor=#F2F6E8;verticalAlign=top;align=left;spacingLeft=30;fontColor=#248814;dashed=0;" parent="_6TExR1_Hg6pZ1gj3lUM-6" vertex="1">
          <mxGeometry x="160" y="90" width="181.5" height="310" as="geometry" />
        </mxCell>
        <mxCell id="_6TExR1_Hg6pZ1gj3lUM-10" value="Amazon EC2" style="sketch=0;outlineConnect=0;fontColor=#232F3E;gradientColor=none;strokeColor=#ffffff;fillColor=#232F3E;dashed=0;verticalLabelPosition=middle;verticalAlign=bottom;align=center;html=1;whiteSpace=wrap;fontSize=10;fontStyle=1;spacing=3;shape=mxgraph.aws4.productIcon;prIcon=mxgraph.aws4.ec2;" parent="_6TExR1_Hg6pZ1gj3lUM-8" vertex="1">
          <mxGeometry x="25" y="30" width="80" height="100" as="geometry" />
        </mxCell>
        <mxCell id="_6TExR1_Hg6pZ1gj3lUM-18" value="" style="outlineConnect=0;dashed=0;verticalLabelPosition=bottom;verticalAlign=top;align=center;html=1;shape=mxgraph.aws3.classic_load_balancer;fillColor=#F58534;gradientColor=none;" parent="_6TExR1_Hg6pZ1gj3lUM-8" vertex="1">
          <mxGeometry x="10" y="134.5" width="69" height="72" as="geometry" />
        </mxCell>
        <mxCell id="_6TExR1_Hg6pZ1gj3lUM-80" value="" style="outlineConnect=0;dashed=0;verticalLabelPosition=bottom;verticalAlign=top;align=center;html=1;shape=mxgraph.aws3.ec2;fillColor=#F58534;gradientColor=none;sketch=0;strokeColor=#E8E8E8;spacingLeft=30;fontFamily=Helvetica;fontSize=12;fontColor=#E8E8E8;" parent="_6TExR1_Hg6pZ1gj3lUM-8" vertex="1">
          <mxGeometry x="105" y="134.5" width="76.5" height="93" as="geometry" />
        </mxCell>
        <mxCell id="_6TExR1_Hg6pZ1gj3lUM-79" value="Balancer" style="text;html=1;strokeColor=none;fillColor=none;align=center;verticalAlign=middle;whiteSpace=wrap;rounded=0;fontSize=12;fontFamily=Helvetica;fontColor=#000000;" parent="_6TExR1_Hg6pZ1gj3lUM-8" vertex="1">
          <mxGeometry x="19" y="206.5" width="60" height="30" as="geometry" />
        </mxCell>
        <mxCell id="_6TExR1_Hg6pZ1gj3lUM-84" value="Bastion" style="text;html=1;strokeColor=none;fillColor=none;align=center;verticalAlign=middle;whiteSpace=wrap;rounded=0;fontSize=12;fontFamily=Helvetica;fontColor=#000000;" parent="_6TExR1_Hg6pZ1gj3lUM-8" vertex="1">
          <mxGeometry x="115" y="227.5" width="60" height="30" as="geometry" />
        </mxCell>
        <mxCell id="_6TExR1_Hg6pZ1gj3lUM-52" value="Private subnet" style="points=[[0,0],[0.25,0],[0.5,0],[0.75,0],[1,0],[1,0.25],[1,0.5],[1,0.75],[1,1],[0.75,1],[0.5,1],[0.25,1],[0,1],[0,0.75],[0,0.5],[0,0.25]];outlineConnect=0;gradientColor=none;html=1;whiteSpace=wrap;fontSize=12;fontStyle=0;container=1;pointerEvents=0;collapsible=0;recursiveResize=0;shape=mxgraph.aws4.group;grIcon=mxgraph.aws4.group_security_group;grStroke=0;strokeColor=#00A4A6;fillColor=#E6F6F7;verticalAlign=top;align=left;spacingLeft=30;fontColor=#147EBA;dashed=0;" parent="_6TExR1_Hg6pZ1gj3lUM-6" vertex="1">
          <mxGeometry x="160" y="480" width="160" height="390" as="geometry" />
        </mxCell>
        <mxCell id="_6TExR1_Hg6pZ1gj3lUM-55" value="" style="outlineConnect=0;dashed=0;verticalLabelPosition=bottom;verticalAlign=top;align=center;html=1;shape=mxgraph.aws3.efs;fillColor=#E05243;gradientColor=none;" parent="_6TExR1_Hg6pZ1gj3lUM-52" vertex="1">
          <mxGeometry x="34" y="176" width="76.5" height="93" as="geometry" />
        </mxCell>
        <mxCell id="_6TExR1_Hg6pZ1gj3lUM-58" value="EFS" style="text;html=1;strokeColor=none;fillColor=none;align=center;verticalAlign=middle;whiteSpace=wrap;rounded=0;" parent="_6TExR1_Hg6pZ1gj3lUM-52" vertex="1">
          <mxGeometry x="42.25" y="269" width="60" height="30" as="geometry" />
        </mxCell>
        <mxCell id="_6TExR1_Hg6pZ1gj3lUM-107" value="Cluster" style="text;html=1;align=center;verticalAlign=middle;whiteSpace=wrap;rounded=0;fontSize=12;fontFamily=Helvetica;" parent="_6TExR1_Hg6pZ1gj3lUM-52" vertex="1">
          <mxGeometry x="50" y="96" width="60" height="30" as="geometry" />
        </mxCell>
        <mxCell id="_6TExR1_Hg6pZ1gj3lUM-48" value="Public subnet" style="points=[[0,0],[0.25,0],[0.5,0],[0.75,0],[1,0],[1,0.25],[1,0.5],[1,0.75],[1,1],[0.75,1],[0.5,1],[0.25,1],[0,1],[0,0.75],[0,0.5],[0,0.25]];outlineConnect=0;gradientColor=none;html=1;whiteSpace=wrap;fontSize=12;fontStyle=0;container=1;pointerEvents=0;collapsible=0;recursiveResize=0;shape=mxgraph.aws4.group;grIcon=mxgraph.aws4.group_security_group;grStroke=0;strokeColor=#7AA116;fillColor=#F2F6E8;verticalAlign=top;align=left;spacingLeft=30;fontColor=#248814;dashed=0;" parent="_6TExR1_Hg6pZ1gj3lUM-6" vertex="1">
          <mxGeometry x="995" y="90" width="181.5" height="310" as="geometry" />
        </mxCell>
        <mxCell id="_6TExR1_Hg6pZ1gj3lUM-49" value="Amazon EC2" style="sketch=0;outlineConnect=0;fontColor=#232F3E;gradientColor=none;strokeColor=#ffffff;fillColor=#232F3E;dashed=0;verticalLabelPosition=middle;verticalAlign=bottom;align=center;html=1;whiteSpace=wrap;fontSize=10;fontStyle=1;spacing=3;shape=mxgraph.aws4.productIcon;prIcon=mxgraph.aws4.ec2;" parent="_6TExR1_Hg6pZ1gj3lUM-48" vertex="1">
          <mxGeometry x="25" y="30" width="80" height="100" as="geometry" />
        </mxCell>
        <mxCell id="_6TExR1_Hg6pZ1gj3lUM-50" value="" style="outlineConnect=0;dashed=0;verticalLabelPosition=bottom;verticalAlign=top;align=center;html=1;shape=mxgraph.aws3.classic_load_balancer;fillColor=#F58534;gradientColor=none;" parent="_6TExR1_Hg6pZ1gj3lUM-48" vertex="1">
          <mxGeometry x="30.5" y="145" width="69" height="72" as="geometry" />
        </mxCell>
        <mxCell id="_6TExR1_Hg6pZ1gj3lUM-152" value="Balancer" style="text;html=1;strokeColor=none;fillColor=none;align=center;verticalAlign=middle;whiteSpace=wrap;rounded=0;fontSize=12;fontFamily=Helvetica;fontColor=#000000;" parent="_6TExR1_Hg6pZ1gj3lUM-48" vertex="1">
          <mxGeometry x="39.5" y="206" width="60" height="30" as="geometry" />
        </mxCell>
        <mxCell id="91E8p9dxRkwPBvJ-ZZeT-2" value="" style="outlineConnect=0;dashed=0;verticalLabelPosition=bottom;verticalAlign=top;align=center;html=1;shape=mxgraph.aws3.ec2;fillColor=#F58534;gradientColor=none;sketch=0;strokeColor=#E8E8E8;spacingLeft=30;fontFamily=Helvetica;fontSize=12;fontColor=#E8E8E8;" vertex="1" parent="_6TExR1_Hg6pZ1gj3lUM-48">
          <mxGeometry x="105" y="147" width="76.5" height="93" as="geometry" />
        </mxCell>
        <mxCell id="91E8p9dxRkwPBvJ-ZZeT-3" value="Bastion" style="text;html=1;strokeColor=none;fillColor=none;align=center;verticalAlign=middle;whiteSpace=wrap;rounded=0;fontSize=12;fontFamily=Helvetica;fontColor=#000000;" vertex="1" parent="_6TExR1_Hg6pZ1gj3lUM-48">
          <mxGeometry x="121.5" y="240" width="60" height="30" as="geometry" />
        </mxCell>
        <mxCell id="_6TExR1_Hg6pZ1gj3lUM-63" value="" style="sketch=0;outlineConnect=0;fontColor=#232F3E;gradientColor=none;fillColor=#ED7100;strokeColor=none;dashed=0;verticalLabelPosition=bottom;verticalAlign=top;align=center;html=1;fontSize=12;fontStyle=0;aspect=fixed;pointerEvents=1;shape=mxgraph.aws4.auto_scaling2;spacingLeft=30;fontFamily=Helvetica;" parent="_6TExR1_Hg6pZ1gj3lUM-6" vertex="1">
          <mxGeometry x="630" y="110" width="118" height="118" as="geometry" />
        </mxCell>
        <mxCell id="_6TExR1_Hg6pZ1gj3lUM-78" value="Ba;ancer" style="text;html=1;strokeColor=none;fillColor=none;align=center;verticalAlign=middle;whiteSpace=wrap;rounded=0;fontSize=12;fontFamily=Helvetica;fontColor=#E8E8E8;" parent="_6TExR1_Hg6pZ1gj3lUM-6" vertex="1">
          <mxGeometry x="930" y="280" width="60" height="30" as="geometry" />
        </mxCell>
        <mxCell id="_6TExR1_Hg6pZ1gj3lUM-82" value="" style="outlineConnect=0;dashed=0;verticalLabelPosition=bottom;verticalAlign=top;align=center;html=1;shape=mxgraph.aws3.vpc_nat_gateway;fillColor=#F58534;gradientColor=none;sketch=0;strokeColor=#E8E8E8;spacingLeft=30;fontFamily=Helvetica;fontSize=12;fontColor=#E8E8E8;" parent="_6TExR1_Hg6pZ1gj3lUM-6" vertex="1">
          <mxGeometry x="180" y="328" width="99" height="72" as="geometry" />
        </mxCell>
        <mxCell id="_6TExR1_Hg6pZ1gj3lUM-83" value="" style="outlineConnect=0;dashed=0;verticalLabelPosition=bottom;verticalAlign=top;align=center;html=1;shape=mxgraph.aws3.vpc_nat_gateway;fillColor=#F58534;gradientColor=none;sketch=0;strokeColor=#E8E8E8;spacingLeft=30;fontFamily=Helvetica;fontSize=12;fontColor=#E8E8E8;" parent="_6TExR1_Hg6pZ1gj3lUM-6" vertex="1">
          <mxGeometry x="1030" y="320" width="69" height="72" as="geometry" />
        </mxCell>
        <mxCell id="_6TExR1_Hg6pZ1gj3lUM-75" value="Public Security group" style="fillColor=none;strokeColor=#DD3522;verticalAlign=top;fontStyle=0;fontColor=#DD3522;whiteSpace=wrap;html=1;dashed=1;sketch=0;align=left;spacingLeft=30;fontFamily=Helvetica;fontSize=12;" parent="_6TExR1_Hg6pZ1gj3lUM-6" vertex="1">
          <mxGeometry x="130" y="70" width="1210" height="370" as="geometry" />
        </mxCell>
        <mxCell id="_6TExR1_Hg6pZ1gj3lUM-153" value="NAT&amp;nbsp; Gateawy" style="text;html=1;strokeColor=none;fillColor=none;align=center;verticalAlign=middle;whiteSpace=wrap;rounded=0;fontSize=12;fontFamily=Helvetica;fontColor=#000000;" parent="_6TExR1_Hg6pZ1gj3lUM-6" vertex="1">
          <mxGeometry x="199.5" y="400" width="60" height="30" as="geometry" />
        </mxCell>
        <mxCell id="_6TExR1_Hg6pZ1gj3lUM-155" value="NAT&amp;nbsp; Gateawy" style="text;html=1;strokeColor=none;fillColor=none;align=center;verticalAlign=middle;whiteSpace=wrap;rounded=0;fontSize=12;fontFamily=Helvetica;fontColor=#000000;" parent="_6TExR1_Hg6pZ1gj3lUM-6" vertex="1">
          <mxGeometry x="1034.5" y="392" width="60" height="30" as="geometry" />
        </mxCell>
        <mxCell id="_Xt4jNBx-VxSrQDPc425-1" value="" style="sketch=0;outlineConnect=0;fontColor=#232F3E;gradientColor=none;fillColor=#C925D1;strokeColor=none;dashed=0;verticalLabelPosition=bottom;verticalAlign=top;align=center;html=1;fontSize=12;fontStyle=0;aspect=fixed;pointerEvents=1;shape=mxgraph.aws4.rds_multi_az_db_cluster;" parent="_6TExR1_Hg6pZ1gj3lUM-6" vertex="1">
          <mxGeometry x="190.5" y="510" width="78" height="78" as="geometry" />
        </mxCell>
        <mxCell id="_6TExR1_Hg6pZ1gj3lUM-157" value="Availability zone eu-east-b" style="fillColor=none;strokeColor=#147EBA;dashed=1;verticalAlign=top;fontStyle=0;fontColor=#147EBA;whiteSpace=wrap;html=1;" parent="_6TExR1_Hg6pZ1gj3lUM-6" vertex="1">
          <mxGeometry x="972.5" y="40" width="300" height="880" as="geometry" />
        </mxCell>
        <mxCell id="_6TExR1_Hg6pZ1gj3lUM-81" value="Private Security group" style="fillColor=none;strokeColor=#DD3522;verticalAlign=top;fontStyle=0;fontColor=#DD3522;whiteSpace=wrap;html=1;dashed=1;sketch=0;align=left;spacingLeft=30;fontFamily=Helvetica;fontSize=12;" parent="_6TExR1_Hg6pZ1gj3lUM-6" vertex="1">
          <mxGeometry x="140" y="456.75" width="1200" height="440" as="geometry" />
        </mxCell>
        <mxCell id="_6TExR1_Hg6pZ1gj3lUM-67" value="" style="rounded=0;whiteSpace=wrap;html=1;dashed=1;sketch=0;strokeColor=#E8E8E8;align=left;verticalAlign=top;spacingLeft=30;fontFamily=Helvetica;fontSize=12;fontColor=#E8E8E8;fillColor=none;gradientColor=none;" parent="1" vertex="1">
          <mxGeometry x="470" y="460" width="1090" height="120" as="geometry" />
        </mxCell>
        <mxCell id="_6TExR1_Hg6pZ1gj3lUM-103" value="Autoscaling Group" style="text;html=1;align=center;verticalAlign=middle;whiteSpace=wrap;rounded=0;fontSize=12;fontFamily=Helvetica;" parent="1" vertex="1">
          <mxGeometry x="1052.5" y="550" width="60" height="30" as="geometry" />
        </mxCell>
        <mxCell id="_6TExR1_Hg6pZ1gj3lUM-104" value="" style="rounded=1;arcSize=10;dashed=1;fillColor=none;gradientColor=none;dashPattern=8 3 1 3;strokeWidth=2;" parent="1" vertex="1">
          <mxGeometry x="480" y="530" width="1030" height="110" as="geometry" />
        </mxCell>
        <mxCell id="_Xt4jNBx-VxSrQDPc425-4" value="Text" style="text;html=1;align=center;verticalAlign=middle;resizable=0;points=[];autosize=1;strokeColor=none;fillColor=none;" parent="1" vertex="1">
          <mxGeometry x="1485" y="1498" width="50" height="30" as="geometry" />
        </mxCell>
      </root>
    </mxGraphModel>
  </diagram>
</mxfile>
